<svg width="576.44375px" height="238.4px" xmlns="http://www.w3.org/2000/svg" viewBox="-38.22187500000001 -44.2 576.44375 238.4" style="background: rgba(0, 0, 0, 0);" preserveAspectRatio="xMidYMid"><defs><filter id="editing-extrusion" x="-100%" y="-100%" width="300%" height="300%"><feFlood result="color1" flood-color="#444"></feFlood><feConvolveMatrix order="8,8" divisor="1" kernelMatrix="1 0 0 0 0 0 0 0 0 1 0 0 0 0 0 0 0 0 1 0 0 0 0 0 0 0 0 1 0 0 0 0 0 0 0 0 1 0 0 0 0 0 0 0 0 1 0 0 0 0 0 0 0 0 1 0 0 0 0 0 0 0 0 1" in="SourceAlpha" result="extrude"></feConvolveMatrix><feComposite in="color1" in2="extrude" result="comp-extrude" operator="in"></feComposite><feOffset dx="4" dy="4" in="comp-extrude" result="offset-extrude"></feOffset><feMerge><feMergeNode in="offset-extrude"></feMergeNode><feMergeNode in="SourceGraphic"></feMergeNode></feMerge></filter></defs><g filter="url(#editing-extrusion)"><g transform="translate(44.449976444244385, 126.06000423431396)"><path d="M58.24-44.44L86.11-46.92L86.11-46.92Q76.18-25.12 76.18 0.14L76.18 0.14L76.18 0.14Q72.45 2.76 67.00 2.76L67.00 2.76L67.00 2.76Q61.55 2.76 58.10 0.21L58.10 0.21L58.10 0.21Q54.65-2.35 53.96-4.97L53.96-4.97L53.96-4.97Q50.51-1.38 44.92 0.69L44.92 0.69L44.92 0.69Q39.33 2.76 33.40 2.76L33.40 2.76L33.40 2.76Q27.46 2.76 22.29 0.83L22.29 0.83L22.29 0.83Q17.11-1.10 13.11-5.38L13.11-5.38L13.11-5.38Q4.28-14.77 4.28-32.57L4.28-32.57L4.28-32.57Q4.28-60.17 19.04-76.73L19.04-76.73L19.04-76.73Q34.22-93.84 61.13-93.84L61.13-93.84L61.13-93.84Q79.76-93.84 86.39-84.18L86.39-84.18L86.39-84.18Q88.46-81.14 88.46-77.49L88.46-77.49L88.46-77.49Q88.46-73.83 86.87-70.73L86.87-70.73L86.87-70.73Q85.28-67.62 82.80-65.14L82.80-65.14L82.80-65.14Q76.87-59.62 69.55-59.62L69.55-59.62L69.55-59.62Q66.65-59.62 63.89-60.58L63.89-60.58L63.89-60.58Q64.45-64.72 64.45-69.55L64.45-69.55L64.45-69.55Q64.45-74.38 64.10-76.59L64.10-76.59L64.10-76.59Q63.76-78.80 62.93-80.59L62.93-80.59L62.93-80.59Q61.13-84.32 57.20-84.32L57.20-84.32L57.20-84.32Q53.27-84.32 48.92-80.11L48.92-80.11L48.92-80.11Q44.57-75.90 41.12-69L41.12-69L41.12-69Q33.53-53.54 33.53-34.91L33.53-34.91L33.53-34.91Q33.53-26.36 36.85-20.29L36.85-20.29L36.85-20.29Q40.43-13.66 46.78-13.66L46.78-13.66L46.78-13.66Q48.99-13.66 50.99-14.77L50.99-14.77L50.99-14.77Q52.99-15.87 53.82-16.70L53.82-16.70L58.24-44.44ZM148.76-23.32L148.76-23.32L148.76-23.32Q152.21-20.98 152.21-15.80L152.21-15.80L152.21-15.80Q152.21-10.63 149.59-7.31L149.59-7.31L149.59-7.31Q146.97-4.00 142.69-1.79L142.69-1.79L142.69-1.79Q133.86 2.76 124.34 2.76L124.34 2.76L124.34 2.76Q114.82 2.76 109.23 0.69L109.23 0.69L109.23 0.69Q103.64-1.38 99.91-5.24L99.91-5.24L99.91-5.24Q92.60-12.56 92.60-25.94L92.60-25.94L92.60-25.94Q92.60-46.78 103.91-59.48L103.91-59.48L103.91-59.48Q116.06-73.14 137.17-73.14L137.17-73.14L137.17-73.14Q150.28-73.14 156.77-67.62L156.77-67.62L156.77-67.62Q161.60-63.48 161.60-56.72L161.60-56.72L161.60-56.72Q161.60-32.43 119.65-32.43L119.65-32.43L119.65-32.43Q119.09-28.84 119.09-25.81L119.09-25.81L119.09-25.81Q119.09-19.46 121.92-17.04L121.92-17.04L121.92-17.04Q124.75-14.63 130.00-14.63L130.00-14.63L130.00-14.63Q135.24-14.63 140.83-17.04L140.83-17.04L140.83-17.04Q146.42-19.46 148.76-23.32ZM120.61-38.36L120.61-38.36L120.61-38.36Q130.41-38.36 136.07-44.44L136.07-44.44L136.07-44.44Q141.73-50.23 141.73-59.48L141.73-59.48L141.73-59.48Q141.73-62.65 140.55-64.38L140.55-64.38L140.55-64.38Q139.38-66.10 137.03-66.10L137.03-66.10L137.03-66.10Q134.69-66.10 132.69-65.21L132.69-65.21L132.69-65.21Q130.69-64.31 128.62-61.27L128.62-61.27L128.62-61.27Q123.51-54.37 120.61-38.36ZM265.65 2.76L265.65 2.76L265.65 2.76Q248.95 2.76 248.95-10.21L248.95-10.21L248.95-10.21Q248.95-15.87 251.37-26.84L251.37-26.84L251.37-26.84Q253.78-37.81 254.61-42.23L254.61-42.23L254.61-42.23Q256.54-52.30 256.54-55.48L256.54-55.48L256.54-55.48Q256.54-62.51 251.30-62.51L251.30-62.51L251.30-62.51Q247.85-62.51 244.54-57.75L244.54-57.75L244.54-57.75Q241.22-52.99 239.71-43.47L239.71-43.47L231.15 0L204.24 2.76L211.69-34.78L211.69-34.78Q212.93-40.99 214.04-48.02L214.04-48.02L214.04-48.02Q215.14-55.06 215.14-56.17L215.14-56.17L215.14-56.17Q215.14-62.51 210.45-62.51L210.45-62.51L210.45-62.51Q207.28-62.51 203.83-57.82L203.83-57.82L203.83-57.82Q200.38-53.13 198.44-43.47L198.44-43.47L190.03 0L162.84 2.76L177.33-70.38L199.82-73.14L197.48-59.20L197.48-59.20Q201.07-66.65 207.69-69.90L207.69-69.90L207.69-69.90Q214.31-73.14 224.66-73.14L224.66-73.14L224.66-73.14Q230.60-73.14 234.46-70.24L234.46-70.24L234.46-70.24Q238.33-67.34 239.57-62.65L239.57-62.65L239.57-62.65Q241.91-67.48 247.92-70.31L247.92-70.31L247.92-70.31Q253.92-73.14 261.30-73.14L261.30-73.14L261.30-73.14Q268.69-73.14 272.34-71.55L272.34-71.55L272.34-71.55Q276-69.97 278.21-67.34L278.21-67.34L278.21-67.34Q281.93-62.51 281.93-53.68L281.93-53.68L281.93-53.68Q281.93-44.99 278.21-26.91L278.21-26.91L278.21-26.91Q276.28-18.08 276.28-14.84L276.28-14.84L276.28-14.84Q276.28-11.59 278.14-9.66L278.14-9.66L278.14-9.66Q280.00-7.73 282.76-7.45L282.76-7.45L282.76-7.45Q281.38-2.76 276.62 0L276.62 0L276.62 0Q271.86 2.76 265.65 2.76ZM326.37-7.59L326.37-7.59L326.37-7.59Q322.09 2.76 308.43 2.76L308.43 2.76L308.43 2.76Q301.53 2.76 297.11-2.07L297.11-2.07L297.11-2.07Q293.53-6.07 293.53-10.63L293.53-10.63L293.53-10.63Q293.53-20.98 298.36-43.61L298.36-43.61L308.43-96.60L336.44-99.36L323.06-29.53L323.06-29.53Q320.71-19.32 320.71-15.73L320.71-15.73L320.71-15.73Q320.71-7.87 326.37-7.59ZM393.99-23.32L393.99-23.32L393.99-23.32Q397.44-20.98 397.44-15.80L397.44-15.80L397.44-15.80Q397.44-10.63 394.82-7.31L394.82-7.31L394.82-7.31Q392.20-4.00 387.92-1.79L387.92-1.79L387.92-1.79Q379.09 2.76 369.56 2.76L369.56 2.76L369.56 2.76Q360.04 2.76 354.45 0.69L354.45 0.69L354.45 0.69Q348.86-1.38 345.14-5.24L345.14-5.24L345.14-5.24Q337.82-12.56 337.82-25.94L337.82-25.94L337.82-25.94Q337.82-46.78 349.14-59.48L349.14-59.48L349.14-59.48Q361.28-73.14 382.40-73.14L382.40-73.14L382.40-73.14Q395.51-73.14 401.99-67.62L401.99-67.62L401.99-67.62Q406.82-63.48 406.82-56.72L406.82-56.72L406.82-56.72Q406.82-32.43 364.87-32.43L364.87-32.43L364.87-32.43Q364.32-28.84 364.32-25.81L364.32-25.81L364.32-25.81Q364.32-19.46 367.15-17.04L367.15-17.04L367.15-17.04Q369.98-14.63 375.22-14.63L375.22-14.63L375.22-14.63Q380.47-14.63 386.06-17.04L386.06-17.04L386.06-17.04Q391.64-19.46 393.99-23.32ZM365.84-38.36L365.84-38.36L365.84-38.36Q375.64-38.36 381.29-44.44L381.29-44.44L381.29-44.44Q386.95-50.23 386.95-59.48L386.95-59.48L386.95-59.48Q386.95-62.65 385.78-64.38L385.78-64.38L385.78-64.38Q384.61-66.10 382.26-66.10L382.26-66.10L382.26-66.10Q379.91-66.10 377.91-65.21L377.91-65.21L377.91-65.21Q375.91-64.31 373.84-61.27L373.84-61.27L373.84-61.27Q368.74-54.37 365.84-38.36Z" fill="#ccc"></path></g></g><style>text {
  font-size: 64px;
  font-family: Arial Black;
  dominant-baseline: central;
  text-anchor: middle;
}</style></svg>